PathFileType	4	(X/Y/Z)	CPRIT_Patient3_L_KneeIso_Processed.TRC
DataRate	CameraRate	NumFrames	NumMarkers	Units	OrigDataRate	OrigDataStartFrame	OrigNumFrames
150.195058517555	150.195058517555	6	36	m	150.195058517555	97	       771
Frame#	Time	R.Heel			R.Midfoot.Superior			R.Midfoot.Lateral			R.Toe			L.Heel			L.Midfoot.Superior			L.Midfoot.Lateral			L.Toe			R.Shank.Superior			R.Shank.Inferior			R.Shank.Lateral			R.Shank.Posterior			L.Shank.Superior			L.Shank.Inferior			L.Shank.Posterior			L.Shank.Lateral			R.Patella			L.Patella			R.Thigh.Superior			R.Thigh.Lateral			R.Thigh.Inferior			L.Thigh.Superior			L.Thigh.Inferior			L.Thigh.Lateral			L.Asis			R.Asis			R.Shoulder			L.Shoulder			C7			J.Notch			Sternum			Thoracic			L.Elbow			L.Wrist			R.Elbow			R.Wrist			
		X1	Y1	Z1	X2	Y2	Z2	X3	Y3	Z3	X4	Y4	Z4	X5	Y5	Z5	X6	Y6	Z6	X7	Y7	Z7	X8	Y8	Z8	X9	Y9	Z9	X10	Y10	Z10	X11	Y11	Z11	X12	Y12	Z12	X13	Y13	Z13	X14	Y14	Z14	X15	Y15	Z15	X16	Y16	Z16	X17	Y17	Z17	X18	Y18	Z18	X19	Y19	Z19	X20	Y20	Z20	X21	Y21	Z21	X22	Y22	Z22	X23	Y23	Z23	X24	Y24	Z24	X25	Y25	Z25	X26	Y26	Z26	X27	Y27	Z27	X28	Y28	Z28	X29	Y29	Z29	X30	Y30	Z30	X31	Y31	Z31	X32	Y32	Z32	X33	Y33	Z33	X34	Y34	Z34	X35	Y35	Z35	X36	Y36	Z36	

97	0.639168831169	0.480622156751	0.049296216261	0.082859856692	0.646794657398	0.097604576595	0.116159749559	0.549792662022	0.038051344661	0.147861983314	0.762038077804	0.054555952494	0.140171310904	0.409805571403	0.146956460035	-0.066820533472	0.586782400533	0.137873166312	-0.095101566040	0.475793195579	0.109892297224	-0.128715664897	0.680810500205	0.058820466814	-0.108649556086	0.609255459887	0.357223199621	0.149099033476	0.599292200679	0.237690194395	0.138267693910	0.530020337720	0.289798440817	0.194923026520	0.470735175710	0.356961127161	0.140350172619	0.685166573825	0.383765056769	-0.090828942830	0.610107590509	0.277297464389	-0.088278095619	0.550461384196	0.426777961910	-0.095351040820	0.584520588149	0.343824100206	-0.144920527289	0.638565611284	0.465636237452	0.136177474802	0.762252550570	0.488868407100	-0.081112580115	0.694114064724	0.775247881789	0.167685223715	0.611763892466	0.705855030332	0.223344190685	0.679836197043	0.616826764068	0.135521299483	0.702617303555	0.817229263390	-0.094848372631	0.749429302007	0.661277631826	-0.082418653327	0.635097673183	0.723724823568	-0.143984606411	0.655210448461	0.956580885689	-0.072693722000	0.687486065781	0.936726744548	0.159023111185	0.583284355900	1.445573805789	0.231224561559	0.608739451954	1.435315019945	-0.097283047949	0.552978307318	1.480399330519	0.083936749156	0.673732090870	1.381114097271	0.071586315808	0.728005827005	1.200701045891	0.058649246845	0.469931528949	1.325456463193	0.073874605849	0.552458717103	1.174287839448	-0.274580345480	0.615252745739	0.988367924827	-0.432144112506	0.553331476715	1.141865508721	0.389914257664	0.763198431111	0.990518274852	0.414801046569	
98	0.645826839827	0.480623451961	0.049298004385	0.082861114556	0.646798322749	0.097607192631	0.116159707490	0.549792800057	0.038050869696	0.147863160643	0.762037459944	0.054557505896	0.140172694899	0.406448310259	0.149877336223	-0.066663535851	0.583301977940	0.139008988343	-0.095196596171	0.471962606722	0.112156902192	-0.128669057633	0.676523011832	0.059035577738	-0.108850779562	0.609256424325	0.357220666154	0.149101935382	0.599286587677	0.237686707182	0.138273660298	0.530030854703	0.289793749219	0.194931925298	0.470735188944	0.356964614380	0.140371804015	0.684129897009	0.383936213735	-0.090959598468	0.608037984204	0.278224661473	-0.088278198411	0.550023261817	0.428104242059	-0.095477048211	0.583014622776	0.344975190220	-0.144940987444	0.638563630597	0.465635089719	0.136178382296	0.762171328028	0.488614222364	-0.081342239944	0.694113473408	0.775246688238	0.167685601803	0.611768686332	0.705853899268	0.223352301909	0.679836504086	0.616825668298	0.135525959722	0.702552889617	0.817233034553	-0.094862863944	0.749471995699	0.661296195817	-0.082509969315	0.635078962731	0.723733811730	-0.144021614602	0.655171956438	0.956566467072	-0.072693584061	0.687478915131	0.936721659431	0.159019656842	0.583381937963	1.445588165159	0.231201421556	0.608780201403	1.435305343684	-0.097273628919	0.553048815137	1.480406173025	0.083940301993	0.673777098674	1.381084690696	0.071582470380	0.727996427377	1.200657756149	0.058641788388	0.469965394952	1.325476740353	0.073899193631	0.552469424371	1.174287652748	-0.274565207537	0.615249553023	0.988367762941	-0.432141257055	0.553349055102	1.141892570514	0.389945997053	0.763198968880	0.990519219888	0.414805582372	
99	0.652484848485	0.480625654972	0.049301066532	0.082862949552	0.646803238453	0.097610632809	0.116159793767	0.549792954646	0.038050387578	0.147864420850	0.762037045182	0.054558684281	0.140173739133	0.403104410112	0.152871919295	-0.066491686699	0.579813789360	0.140203127188	-0.095284376744	0.468136347955	0.114497628692	-0.128609586960	0.672211235463	0.059309005381	-0.109044092862	0.609257165033	0.357218016031	0.149104874990	0.599281129290	0.237683457646	0.138280241470	0.530038884264	0.289788839883	0.194941899138	0.470736067715	0.356966867790	0.140395576353	0.683101500939	0.384123377805	-0.091099277809	0.605976685287	0.279189388486	-0.088271561927	0.549606449055	0.429462174906	-0.095589543845	0.581523676457	0.346161146206	-0.144955309537	0.638561299128	0.465634007565	0.136179338455	0.762111198210	0.488369881823	-0.081571384830	0.694111721855	0.775246268754	0.167686692226	0.611772007472	0.705852923039	0.223360166299	0.679837956681	0.616825390462	0.135532566797	0.702492021176	0.817241503696	-0.094875716641	0.749527038656	0.661323404925	-0.082601486668	0.635069493718	0.723746230841	-0.144062121228	0.655132969406	0.956552154862	-0.072693161915	0.687469277265	0.936717392501	0.159017022247	0.583475180187	1.445601493507	0.231177724011	0.608818201285	1.435295852444	-0.097265998803	0.553116568709	1.480412672223	0.083941886730	0.673818855565	1.381054856392	0.071577483535	0.727984733362	1.200614693605	0.058633181815	0.469996346036	1.325496520924	0.073922415218	0.552478095066	1.174286885657	-0.274551317371	0.615246178192	0.988367570457	-0.432138792433	0.553364929258	1.141917984313	0.389974895502	0.763198938593	0.990520206338	0.414809453796	
100	0.659142857143	0.480628667407	0.049305266369	0.082865293643	0.646809646072	0.097615029293	0.116160075298	0.549793121715	0.038049897085	0.147865750745	0.762036812696	0.054559542492	0.140174486502	0.399773052313	0.155944745018	-0.066304304556	0.576316153152	0.141458957508	-0.095363801618	0.464313632480	0.116918187678	-0.128536629948	0.667872876167	0.059643005431	-0.109227983030	0.609257641357	0.357215284844	0.149107843860	0.599275839305	0.237680540169	0.138287381417	0.530044465816	0.289783734481	0.194952873477	0.470737811416	0.356967690394	0.140421273324	0.682081524217	0.384327306995	-0.091247393026	0.603923274002	0.280193323269	-0.088257766199	0.549208758752	0.430855473291	-0.095684164285	0.580048113285	0.347383638048	-0.144963185999	0.638558569714	0.465632977485	0.136180339400	0.762073505732	0.488135802071	-0.081799277258	0.694108704132	0.775246625626	0.167688620049	0.611773680037	0.705852092026	0.223367765080	0.679840433041	0.616825915403	0.135541100112	0.702434936720	0.817254810999	-0.094886993847	0.749595149565	0.661359653033	-0.082693466709	0.635069755432	0.723762202053	-0.144106062070	0.655093626323	0.956538005560	-0.072692427605	0.687457102983	0.936713963473	0.159015324929	0.583563652130	1.445613658230	0.231153777915	0.608853416686	1.435286575790	-0.097260114041	0.553181351189	1.480418805613	0.083941576477	0.673857322388	1.381024660234	0.071571332511	0.727970715686	1.200571915768	0.058623399516	0.470024303427	1.325515777082	0.073944181844	0.552484733646	1.174285565991	-0.274538783641	0.615242628352	0.988367347519	-0.432136730253	0.553379106314	1.141941701212	0.390000839873	0.763198351614	0.990521235688	0.414812643711	
101	0.665800865801	0.480632368686	0.049310431806	0.082868061882	0.646817783556	0.097620506243	0.116160621602	0.549793297728	0.038049396723	0.147867132919	0.762036740046	0.054560135800	0.140174981508	0.396453499172	0.159100353953	-0.066100826626	0.572807425558	0.142779879591	-0.095433779219	0.460493729252	0.119422244857	-0.128449605899	0.663505713340	0.060039894959	-0.109400993286	0.609257811704	0.357212510211	0.149110828889	0.599270749741	0.237678050034	0.138294999299	0.530047667134	0.289778450330	0.194964749624	0.470740388556	0.356966913745	0.140448605630	0.681070173530	0.384548897678	-0.091402912737	0.601877299887	0.281238210727	-0.088236355544	0.548828003578	0.432287780580	-0.095756671827	0.578588263495	0.348644306131	-0.144964312213	0.638555398323	0.465631989603	0.136181378834	0.762059411971	0.487912354232	-0.082025193335	0.694104319958	0.775247746089	0.167691506085	0.611773548231	0.705851394044	0.223375085274	0.679843772258	0.616827213931	0.135551505546	0.702381848396	0.817273062327	-0.094896818108	0.749676970270	0.661405289210	-0.082786234286	0.635080172719	0.723781835009	-0.144153345426	0.655054076699	0.956524076202	-0.072691356893	0.687442374717	0.936711377166	0.159014669300	0.583646981661	1.445624564920	0.231129837661	0.608885799422	1.435277549956	-0.097255916688	0.553242942692	1.480424555918	0.083939440132	0.673892462157	1.380994172491	0.071563994679	0.727954346709	1.200529483562	0.058612428140	0.470049190914	1.325534478187	0.073964405209	0.552489342152	1.174283742245	-0.274527726247	0.615238910591	0.988367092223	-0.432135083733	0.553391617067	1.141963706403	0.390023761225	0.763197220446	0.990522309756	0.414815148572	
102	0.672458874459	0.480636623661	0.049316367454	0.082871158131	0.646827877713	0.097627177634	0.116161502657	0.549793479385	0.038048885556	0.147868545946	0.762036804256	0.054560518451	0.140175268510	0.393145135987	0.162343194309	-0.065880844461	0.569286051231	0.144169263123	-0.095493259745	0.456675991075	0.122013361707	-0.128347987231	0.659107649042	0.060502042351	-0.109561781392	0.609257634716	0.357209731920	0.149113814513	0.599265912532	0.237676079359	0.138302989477	0.530048580319	0.289773000672	0.194977405649	0.470743736434	0.356964403732	0.140477216256	0.680067722696	0.384789180908	-0.091564365184	0.599838285396	0.282325839252	-0.088206869183	0.548462040105	0.433762601992	-0.095803018824	0.577144412953	0.349944739058	-0.144958386390	0.638551744966	0.465631038062	0.136182447381	0.762069853761	0.487699850283	-0.082248453878	0.694098475209	0.775249602445	0.167695462019	0.611771479925	0.705850815858	0.223382118830	0.679847774532	0.616829246609	0.135563695454	0.702332945095	0.817296333633	-0.094905359545	0.749773055910	0.661460613277	-0.082880151748	0.635101107349	0.723805228744	-0.144203851534	0.655014481422	0.956510425029	-0.072689929576	0.687425107720	0.936709623428	0.159015143399	0.583724856875	1.445634157867	0.231106099232	0.608915288934	1.435268819135	-0.097253340160	0.553301121775	1.480429912934	0.083935540537	0.673924237476	1.380963471625	0.071555449945	0.727935602012	1.200487463783	0.058600271499	0.470070935284	1.325552591937	0.073982996967	0.552491921024	1.174281484633	-0.274518271604	0.615235030975	0.988366803385	-0.432133866713	0.553402511093	1.141984014610	0.390043632031	0.763195557583	0.990523431849	0.414816977713	
